<?xml version="1.0" encoding="UTF-8" standalone="no"?>
<svg
   version="1.1"
   id="Layer_1"
   x="0px"
   y="0px"
   viewBox="0 0 122.88 120.45"
   style="enable-background:new 0 0 122.88 120.45"
   xml:space="preserve"
   sodipodi:docname="favicon.svg"
   inkscape:version="1.2.1 (9c6d41e410, 2022-07-14, custom)"
   xmlns:inkscape="http://www.inkscape.org/namespaces/inkscape"
   xmlns:sodipodi="http://sodipodi.sourceforge.net/DTD/sodipodi-0.dtd"
   xmlns="http://www.w3.org/2000/svg"
   xmlns:svg="http://www.w3.org/2000/svg"><defs
     id="defs1036" /><sodipodi:namedview
     id="namedview1034"
     pagecolor="#505050"
     bordercolor="#eeeeee"
     borderopacity="1"
     inkscape:showpageshadow="0"
     inkscape:pageopacity="0"
     inkscape:pagecheckerboard="0"
     inkscape:deskcolor="#505050"
     showgrid="false"
     inkscape:zoom="7.2312165"
     inkscape:cx="28.695034"
     inkscape:cy="26.966417"
     inkscape:window-width="1914"
     inkscape:window-height="1039"
     inkscape:window-x="1920"
     inkscape:window-y="35"
     inkscape:window-maximized="1"
     inkscape:current-layer="g1031" /><style
     type="text/css"
     id="style1027"><![CDATA[
	.st0{fill-rule:evenodd;clip-rule:evenodd;}
]]></style><g
     id="g1031"><path
       class="st0"
       d="M8.89,0h105.1c4.9,0,8.89,4,8.89,8.89v102.68c0,4.88-4,8.89-8.89,8.89H8.89c-4.88,0-8.89-4-8.89-8.89V8.89 C-0.01,4,3.99,0,8.89,0L8.89,0L8.89,0z M66.17,91.29h30.49c1.95,0,3.54,1.61,3.54,3.54v6.69c0,1.94-1.61,3.54-3.54,3.54H66.17 c-1.93,0-3.54-1.59-3.54-3.54v-6.69C62.63,92.88,64.22,91.29,66.17,91.29L66.17,91.29z M26.23,60.79h70.42 c1.71,0,3.27,0.7,4.41,1.84l0.01,0.01c1.13,1.13,1.83,2.69,1.83,4.41v8.85c0,1.71-0.7,3.28-1.83,4.41l-0.01,0.01 c-1.13,1.13-2.69,1.83-4.41,1.83H26.23c-1.71,0-3.27-0.7-4.41-1.83l-0.01-0.01c-1.13-1.13-1.83-2.69-1.83-4.41v-8.85 c0-1.71,0.7-3.27,1.83-4.41l0.01-0.01C22.96,61.49,24.52,60.79,26.23,60.79L26.23,60.79z M96.65,66.21H26.23 c-0.23,0-0.44,0.09-0.59,0.24c-0.15,0.15-0.24,0.36-0.24,0.59v8.85c0,0.23,0.09,0.44,0.24,0.59c0.15,0.15,0.36,0.24,0.59,0.24 h70.42c0.23,0,0.44-0.09,0.59-0.24c0.15-0.15,0.24-0.36,0.24-0.59v-8.85c0-0.23-0.09-0.44-0.24-0.59 C97.09,66.3,96.88,66.21,96.65,66.21L96.65,66.21z M26.23,33h70.42c1.71,0,3.27,0.7,4.41,1.83l0.01,0.01 c1.13,1.13,1.83,2.69,1.83,4.41v8.85c0,1.71-0.7,3.28-1.83,4.41l-0.01,0.01c-1.13,1.13-2.69,1.83-4.41,1.83H26.23 c-1.71,0-3.27-0.7-4.41-1.83l-0.01-0.01c-1.13-1.13-1.83-2.69-1.83-4.41v-8.85c0-1.71,0.7-3.27,1.83-4.41l0.01-0.01 C22.96,33.7,24.52,33,26.23,33L26.23,33z M96.65,38.42H26.23c-0.23,0-0.44,0.09-0.59,0.24c-0.15,0.15-0.24,0.36-0.24,0.59v8.85 c0,0.23,0.09,0.44,0.24,0.59c0.15,0.15,0.36,0.24,0.59,0.24h70.42c0.23,0,0.44-0.09,0.59-0.24c0.15-0.15,0.24-0.36,0.24-0.59v-8.85 c0-0.23-0.09-0.44-0.24-0.59C97.09,38.51,96.88,38.42,96.65,38.42L96.65,38.42z M114.8,27.01H8.46v82.6c0,0.68,0.27,1.28,0.72,1.74 c0.46,0.46,1.06,0.72,1.74,0.72H112.3c0.68,0,1.28-0.27,1.74-0.72c0.46-0.46,0.72-1.06,0.72-1.74v-82.6H114.8L114.8,27.01 L114.8,27.01z M105.53,9.64c2.42,0,4.39,1.97,4.39,4.39c0,2.42-1.96,4.39-4.39,4.39c-2.43,0-4.39-1.97-4.39-4.39 C101.13,11.6,103.09,9.64,105.53,9.64L105.53,9.64L105.53,9.64z M75.76,9.64c2.42,0,4.39,1.97,4.39,4.39 c0,2.42-1.97,4.39-4.39,4.39s-4.39-1.97-4.39-4.39C71.36,11.6,73.32,9.64,75.76,9.64L75.76,9.64L75.76,9.64z M90.64,9.64 c2.42,0,4.39,1.97,4.39,4.39c0,2.42-1.97,4.39-4.39,4.39s-4.39-1.97-4.39-4.39C86.25,11.6,88.21,9.64,90.64,9.64L90.64,9.64 L90.64,9.64z"
       id="path1029"
       style="fill:#ffffff;fill-opacity:1" /></g></svg>
